<svg xmlns="http://www.w3.org/2000/svg" width="15" height="15.038" viewBox="0 0 15 15.038">
  <path id="bathroom" d="M15.125,9.328h-12V3.7A1.6,1.6,0,0,1,3.6,2.563l.012-.012a1.616,1.616,0,0,1,1.831-.318,2.472,2.472,0,0,0,.368,3.02l.342.342-.63.63.707.707.63-.63,3.49-3.49.63-.63-.707-.707-.63.63L9.3,1.762a2.472,2.472,0,0,0-3.154-.28A2.613,2.613,0,0,0,2.9,1.843l-.012.012A2.6,2.6,0,0,0,2.125,3.7V9.328h-1v1h1v.96a.748.748,0,0,0,.039.237l.93,2.791a.749.749,0,0,0,.711.513h.4l-.364,1.25H4.885l.364-1.25h6.5l.375,1.25h1.044l-.375-1.25h.648a.749.749,0,0,0,.712-.513l.93-2.791a.749.749,0,0,0,.039-.237v-.959h1v-1ZM6.516,2.469a1.469,1.469,0,0,1,2.076,0l.342.342L6.858,4.887l-.342-.342A1.47,1.47,0,0,1,6.516,2.469Zm7.609,8.778-.86,2.581H3.985l-.86-2.581v-.919h11Z" transform="translate(-1.125 -1.041)" fill="#545758"/>
</svg>
