<svg id="calendar" xmlns="http://www.w3.org/2000/svg" width="21" height="21" viewBox="0 0 21 21">
  <path id="Path_2710" data-name="Path 2710" d="M18.375,0H2.625A2.625,2.625,0,0,0,0,2.625v15.75A2.625,2.625,0,0,0,2.625,21h15.75A2.625,2.625,0,0,0,21,18.375V2.625A2.625,2.625,0,0,0,18.375,0ZM1.313,5.062A1.23,1.23,0,0,1,2.625,3.938h15.75a1.23,1.23,0,0,1,1.313,1.125v13.5a1.23,1.23,0,0,1-1.312,1.125H2.625a1.23,1.23,0,0,1-1.312-1.125Z" fill="#545758" fill-rule="evenodd"/>
  <path id="Path_2711" data-name="Path 2711" d="M10.875,13.875a1.313,1.313,0,1,0-1.312-1.312A1.313,1.313,0,0,0,10.875,13.875Zm3.938,0A1.313,1.313,0,1,0,13.5,12.563,1.313,1.313,0,0,0,14.813,13.875Zm3.937,0a1.313,1.313,0,1,0-1.312-1.312A1.312,1.312,0,0,0,18.75,13.875ZM6.938,17.813A1.313,1.313,0,1,0,5.625,16.5,1.313,1.313,0,0,0,6.938,17.813Zm3.938,0A1.313,1.313,0,1,0,9.563,16.5,1.313,1.313,0,0,0,10.875,17.813Zm3.938,0A1.313,1.313,0,1,0,13.5,16.5,1.313,1.313,0,0,0,14.813,17.813Zm3.937,0A1.313,1.313,0,1,0,17.437,16.5,1.313,1.313,0,0,0,18.75,17.813ZM6.938,21.75a1.313,1.313,0,1,0-1.312-1.312A1.312,1.312,0,0,0,6.938,21.75Zm3.938,0a1.313,1.313,0,1,0-1.312-1.312A1.312,1.312,0,0,0,10.875,21.75Zm3.938,0A1.313,1.313,0,1,0,13.5,20.438,1.312,1.312,0,0,0,14.813,21.75Z" transform="translate(-2.344 -4.688)" fill="#545758" fill-rule="evenodd"/>
</svg>
