<svg xmlns="http://www.w3.org/2000/svg" width="20.731" height="26.5" viewBox="0 0 20.731 26.5">
  <g id="document-text-outline" transform="translate(-6 -2.625)">
    <path id="Path_2717" data-name="Path 2717" d="M25.981,13.787v11.7A2.885,2.885,0,0,1,23.1,28.375H9.635A2.885,2.885,0,0,1,6.75,25.49V6.26A2.885,2.885,0,0,1,9.635,3.375h5.934a1.923,1.923,0,0,1,1.359.563l8.489,8.489a1.923,1.923,0,0,1,.563,1.359Z" transform="translate(0 0)" fill="none" stroke="#000" stroke-linejoin="round" stroke-width="1.5"/>
    <path id="Path_2718" data-name="Path 2718" d="M18,3.938V11.15a1.923,1.923,0,0,0,1.923,1.923h7.212" transform="translate(-1.635 -0.082)" fill="none" stroke="#000" stroke-linecap="round" stroke-linejoin="round" stroke-width="1.5"/>
    <path id="Path_2719" data-name="Path 2719" d="M12.375,20.25H21.99" transform="translate(-0.817 -2.452)" fill="none" stroke="#000" stroke-linecap="round" stroke-linejoin="round" stroke-width="1.5"/>
    <path id="Path_2720" data-name="Path 2720" d="M12.375,25.875H21.99" transform="translate(-0.817 -3.269)" fill="none" stroke="#000" stroke-linecap="round" stroke-linejoin="round" stroke-width="1.5"/>
  </g>
</svg>
