<svg xmlns="http://www.w3.org/2000/svg" width="20" height="22.304" viewBox="0 0 20 22.304">
  <path id="notification" d="M23.141,15.969l-2.077-2.077V10.354a7.745,7.745,0,0,0-6.922-7.691V1.125H12.6V2.663a7.807,7.807,0,0,0-6.922,7.691v3.538L3.6,15.969a.7.7,0,0,0-.23.538v2.307a.723.723,0,0,0,.769.769H9.527a3.846,3.846,0,0,0,7.691,0H22.6a.723.723,0,0,0,.769-.769V16.507A.7.7,0,0,0,23.141,15.969Zm-9.768,5.922a2.307,2.307,0,0,1-2.307-2.307H15.68a2.307,2.307,0,0,1-2.307,2.307Zm8.46-3.846H4.912V16.815l2.077-2.077a.7.7,0,0,0,.23-.538V10.354a6.153,6.153,0,1,1,12.306,0V14.2a.7.7,0,0,0,.23.538l2.077,2.077Z" transform="translate(-3.373 -1.125)" fill="#808384"/>
</svg>
