<svg xmlns="http://www.w3.org/2000/svg" width="25" height="26.923" viewBox="0 0 25 26.923">
  <g id="policy" transform="translate(-4.5 -2.25)">
    <path id="Path_2721" data-name="Path 2721" d="M31.788,19.267a5.769,5.769,0,1,0-9.615,4.289v7.25l3.846-1.821,3.846,1.821v-7.25a5.75,5.75,0,0,0,1.923-4.289Zm-3.846,8.5-1.923-.91-1.923.91V24.7a5.662,5.662,0,0,0,3.846,0Zm-1.923-4.654a3.846,3.846,0,1,1,3.846-3.846A3.846,3.846,0,0,1,26.019,23.113Z" transform="translate(-2.288 -1.633)"/>
    <path id="Path_2722" data-name="Path 2722" d="M10.125,15.75h6.731v1.923H10.125Z" transform="translate(-0.817 -1.962)"/>
    <path id="Path_2723" data-name="Path 2723" d="M10.125,9H19.74v1.923H10.125Z" transform="translate(-0.817 -0.981)"/>
    <path id="Path_2724" data-name="Path 2724" d="M6.423,29.173A1.925,1.925,0,0,1,4.5,27.25V4.173A1.925,1.925,0,0,1,6.423,2.25H21.808a1.925,1.925,0,0,1,1.923,1.923V8.019H21.808V4.173H6.423V27.25h9.615v1.923Z"/>
  </g>
</svg>
