<svg xmlns="http://www.w3.org/2000/svg" width="16.09" height="16.057" viewBox="0 0 16.09 16.057">
  <g id="property" transform="translate(0.547 0.557)">
    <g id="home-line">
      <path id="Path_5" data-name="Path 5" d="M16.9,9.167,9.864,2.136a.469.469,0,0,0-.661,0L2.172,9.167a.469.469,0,0,0,.661.661l6.7-6.7,6.7,6.7a.469.469,0,0,0,.661-.661Z" transform="translate(-2.06 -1.999)" fill="#fff" stroke="#fff" stroke-width="1"/>
      <path id="Path_6" data-name="Path 6" d="M16.312,24.435H13.969V19.747H9.281v4.687H6.937V17.873L6,18.81v5.625a.937.937,0,0,0,.937.937h3.281V20.685h2.812v4.687h3.281a.937.937,0,0,0,.937-.937V18.7l-.937-.937Z" transform="translate(-4.153 -10.372)" fill="#fff" stroke="#fff" stroke-width="1"/>
    </g>
  </g>
</svg>
