<svg xmlns="http://www.w3.org/2000/svg" width="15" height="15" viewBox="0 0 15 15">
  <g id="scale" transform="translate(-5.625 -5.625)">
    <path id="Path_2705" data-name="Path 2705" d="M11.08,19.125H6.989a1.364,1.364,0,0,0-1.364,1.364V24.58a1.364,1.364,0,0,0,1.364,1.364H11.08a1.364,1.364,0,0,0,1.364-1.364V20.489A1.364,1.364,0,0,0,11.08,19.125ZM6.568,25.119V20.077h4.9v5.042Z" transform="translate(0 -5.318)"/>
    <path id="Path_2706" data-name="Path 2706" d="M16.943,16.954V17.9h4.091A1.364,1.364,0,0,0,22.4,16.534V6.989a1.364,1.364,0,0,0-1.364-1.364H11.489a1.364,1.364,0,0,0-1.364,1.364V11.08h1.062V6.7h10.29V16.954" transform="translate(-1.773)"/>
  </g>
</svg>
