<svg xmlns="http://www.w3.org/2000/svg" width="25" height="20.313" viewBox="0 0 25 20.313">
  <g id="tools-line" transform="translate(-2 -4)">
    <path id="Path_2725" data-name="Path 2725" d="M18.906,14H15.781a.781.781,0,0,0-.781.781v4.687a.781.781,0,0,0,.781.781h3.125a.781.781,0,0,0,.781-.781V14.781A.781.781,0,0,0,18.906,14Zm-.312,5.156h-2.5V15.094h2.5Z" transform="translate(-2.844 -2.188)"/>
    <path id="Path_2726" data-name="Path 2726" d="M26.773,10.547l-3.2-3.2a.781.781,0,0,0-.547-.227H19.125V5.6a1.562,1.562,0,0,0-1.5-1.6H11.25A1.5,1.5,0,0,0,9.812,5.6V7.125H5.969a.781.781,0,0,0-.555.227l-3.187,3.2A.781.781,0,0,0,2,11.1V22.75a1.562,1.562,0,0,0,1.562,1.562H25.437A1.563,1.563,0,0,0,27,22.75V11.094a.781.781,0,0,0-.227-.547Zm-15.4-4.984h6.25V7.125h-6.25Zm14.062,8.594H17.625v1.508h7.812V22.75H3.562V15.664h7.812V14.156H3.562V11.422L6.3,8.687H22.7l2.734,2.734Z" transform="translate(0)"/>
  </g>
</svg>
