<svg xmlns="http://www.w3.org/2000/svg" width="25" height="23.333" viewBox="0 0 25 23.333">
  <g id="user-profile" transform="translate(-2.25 -2.25)">
    <path id="Path_2712" data-name="Path 2712" d="M11.458,3.917A4.167,4.167,0,1,1,7.292,8.083a4.167,4.167,0,0,1,4.167-4.167m0-1.667a5.833,5.833,0,1,0,5.833,5.833A5.833,5.833,0,0,0,11.458,2.25Z" transform="translate(-0.875 0)"/>
    <path id="Path_2713" data-name="Path 2713" d="M18.917,30.25H17.25V26.083a4.167,4.167,0,0,0-4.167-4.167h-5a4.167,4.167,0,0,0-4.167,4.167V30.25H2.25V26.083A5.833,5.833,0,0,1,8.083,20.25h5a5.833,5.833,0,0,1,5.833,5.833Z" transform="translate(0 -4.667)"/>
    <path id="Path_2714" data-name="Path 2714" d="M24.75,4.5h8.333V6.167H24.75Z" transform="translate(-5.833 -0.583)"/>
    <path id="Path_2715" data-name="Path 2715" d="M24.75,10.125h8.333v1.667H24.75Z" transform="translate(-5.833 -2.042)"/>
    <path id="Path_2716" data-name="Path 2716" d="M24.75,15.75h5.833v1.667H24.75Z" transform="translate(-5.833 -3.5)"/>
  </g>
</svg>
