<svg xmlns="http://www.w3.org/2000/svg" width="75" height="65.625" viewBox="0 0 75 65.625">
  <g id="img-loading" transform="translate(-0.005 -2.25)">
    <path id="Path_2707" data-name="Path 2707" d="M65.63,6.938H9.38a4.687,4.687,0,0,0-4.687,4.688V58.5A4.688,4.688,0,0,0,9.38,63.188H65.63A4.687,4.687,0,0,0,70.317,58.5V11.625A4.687,4.687,0,0,0,65.63,6.938ZM9.38,2.25A9.375,9.375,0,0,0,0,11.625V58.5A9.375,9.375,0,0,0,9.38,67.875H65.63A9.375,9.375,0,0,0,75,58.5V11.625A9.375,9.375,0,0,0,65.63,2.25H9.38Z" transform="translate(0)" fill="#818181" fill-rule="evenodd"/>
    <path id="Path_2708" data-name="Path 2708" d="M47.47,17.559a2.344,2.344,0,0,1,2.7-.435L67.88,26.25V47.344H2.255V37.969l12.4-11.033a2.344,2.344,0,0,1,2.952-.292l12.469,8.31L47.472,17.563Z" transform="translate(2.438 15.844)" fill="#818181"/>
    <path id="Path_2709" data-name="Path 2709" d="M13.786,23.063a7.031,7.031,0,1,0-7.031-7.031,7.031,7.031,0,0,0,7.031,7.031Z" transform="translate(7.313 7.312)" fill="#818181" fill-rule="evenodd"/>
  </g>
</svg>
